<svg width="141" height="26" viewBox="0 0 141 26" fill="none" xmlns="http://www.w3.org/2000/svg">
<path d="M134.896 21.9006H134.402C133.454 21.9006 132.467 21.7868 132.049 20.9897C131.821 20.6101 131.708 20.0028 131.708 19.3196C131.708 18.5226 131.859 17.5737 132.049 16.5868C132.656 13.7401 133.909 10.362 134.478 8.95763C134.63 8.65398 135.01 8.50215 135.427 8.50215C136.338 8.50215 137.515 9.07149 137.515 9.64083L137.477 9.79266C137.173 10.6277 134.516 18.181 134.516 20.4963C134.516 20.9138 134.592 21.1415 134.82 21.1415C136.073 21.1036 138.426 16.2452 139.489 13.854C139.564 13.6642 139.678 13.6262 139.83 13.6262L140.02 13.6642C140.134 13.7021 140.21 13.816 140.21 13.9678C140.21 14.0437 140.21 14.0817 140.172 14.1576C138.957 16.8525 136.642 21.8247 134.896 21.9006ZM137.667 7.09778C136.908 7.09778 135.807 6.6423 135.807 6.14887C135.807 5.54158 136.262 4.06129 136.49 3.56786C136.604 3.22626 136.946 3.11239 137.363 3.11239C138.236 3.11239 139.375 3.71969 139.375 4.28903C139.375 4.36494 139.375 4.47881 139.299 4.55472C139.109 4.89633 138.578 6.26274 138.312 6.83209C138.236 7.02187 137.97 7.09778 137.667 7.09778Z" fill="#0049AB"/>
<path d="M127.542 21.9386C126.176 21.9386 125.227 21.635 125.227 19.7372C125.303 16.9664 127.428 10.8175 127.466 10.362C127.466 10.2481 127.428 10.1722 127.352 10.1722C127.238 10.1722 127.086 10.2861 126.973 10.4C125.151 12.0321 122.57 16.2832 121.886 17.4598C121.431 19.1299 121.051 20.6481 121.013 21.5211C121.013 21.8627 120.824 21.9007 120.52 21.9007H120.33C119.419 21.9007 118.205 21.7109 118.167 20.8379C118.167 18.9021 120.406 11.4248 121.355 8.95763C121.469 8.65398 121.849 8.50216 122.304 8.50216C123.215 8.50216 124.467 9.03354 124.467 9.64084L124.43 9.79267C124.126 10.5138 122.873 14.2715 122.759 14.5751C123.329 13.7401 123.974 12.7912 124.657 11.9182C125.796 10.4379 127.39 8.50216 128.984 8.50216C129.933 8.50216 130.73 9.0715 130.73 10.0963L130.692 10.5518C130.161 13.1708 128.339 18.2569 128.339 20.4583C128.339 20.9138 128.377 21.1415 128.567 21.1415C129.516 21.0656 130.199 19.8131 132.856 13.854C132.932 13.7021 133.046 13.6262 133.159 13.6262C133.387 13.6262 133.577 13.7781 133.577 14.0058C133.577 14.0437 133.577 14.0817 133.539 14.1576C130.882 20.1926 130.047 21.8247 128.605 21.9007L127.542 21.9386Z" fill="#0049AB"/>
<path d="M115.214 21.9006H114.72C113.771 21.9006 112.784 21.7868 112.367 20.9897C112.139 20.6101 112.025 20.0028 112.025 19.3196C112.025 18.5226 112.177 17.5737 112.367 16.5868C112.974 13.7401 114.227 10.362 114.796 8.95763C114.948 8.65398 115.327 8.50215 115.745 8.50215C116.656 8.50215 117.833 9.07149 117.833 9.64083L117.795 9.79266C117.491 10.6277 114.834 18.181 114.834 20.4963C114.834 20.9138 114.91 21.1415 115.138 21.1415C116.39 21.1036 118.743 16.2452 119.806 13.854C119.882 13.6642 119.996 13.6262 120.148 13.6262L120.338 13.6642C120.452 13.7021 120.527 13.816 120.527 13.9678C120.527 14.0437 120.527 14.0817 120.489 14.1576C119.275 16.8525 116.96 21.8247 115.214 21.9006ZM117.984 7.09778C117.225 7.09778 116.125 6.6423 116.125 6.14887C116.125 5.54158 116.58 4.06129 116.808 3.56786C116.922 3.22626 117.263 3.11239 117.681 3.11239C118.554 3.11239 119.692 3.71969 119.692 4.28903C119.692 4.36494 119.692 4.47881 119.616 4.55472C119.427 4.89633 118.895 6.26274 118.63 6.83209C118.554 7.02187 118.288 7.09778 117.984 7.09778Z" fill="#0049AB"/>
<path d="M101.732 21.9386H101.352C100.441 21.9386 99.4544 21.7868 99.2646 20.9138L99.2267 20.4583C99.2267 19.3956 99.758 17.2321 100.479 14.8029C101.77 10.4 103.668 5.04816 104.351 3.60583C104.465 3.30218 104.844 3.18831 105.3 3.18831C106.249 3.18831 107.539 3.71969 107.539 4.32699L107.501 4.47882C107.235 5.16202 106.4 7.32552 105.489 9.90653C106.135 9.10946 106.932 8.50216 107.881 8.50216H107.995C109.93 8.50216 110.538 10.4759 110.651 12.2598V12.6014C110.651 13.6642 110.462 14.8408 110.158 15.9036C111.373 15.6759 112.549 15.1824 113.119 13.8919C113.194 13.7021 113.346 13.6262 113.46 13.6262C113.498 13.6262 113.574 13.6262 113.65 13.6642C113.764 13.7021 113.84 13.854 113.84 14.0058C113.84 14.0437 113.84 14.1197 113.802 14.1956C112.967 15.9795 111.486 16.5109 109.892 16.7007C109.095 18.8642 107.729 20.7999 105.945 21.2934C105.717 21.3313 105.489 21.3693 105.262 21.3693C104.047 21.3693 103.25 20.4204 103.25 19.2437C103.25 18.5605 103.516 17.8014 104.161 17.1182C104.844 16.4729 105.793 16.2832 106.78 16.1693C107.159 15.1065 107.539 13.4364 107.539 12.1459L107.463 11.273C107.387 10.8934 107.311 10.6657 107.046 10.6657H106.97C105.831 10.7416 103.933 14.4992 103.592 15.6379C103.06 17.1182 102.149 20.0029 102.111 21.559C102.111 21.7488 101.959 21.9386 101.732 21.9386ZM104.427 19.5094C104.654 19.5094 104.958 19.3196 105.338 18.8262C105.717 18.4087 106.097 17.8394 106.476 17.0043C105.793 17.1182 105.034 17.3459 104.654 17.7634C104.275 18.143 104.085 18.6364 104.085 19.016C104.085 19.2817 104.199 19.5094 104.427 19.5094Z" fill="#0049AB"/>
<path d="M95.493 21.9386C94.1646 21.9386 93.1777 21.597 93.1777 19.7372V19.3956C93.2916 16.8525 95.4171 10.8554 95.4551 10.4379C95.4551 10.2481 95.4171 10.1722 95.3033 10.1722C95.1894 10.1722 95.0376 10.3241 94.9237 10.4379C94.3543 10.9693 93.7471 11.6525 93.2157 12.3737C91.6974 14.3474 90.369 16.5488 89.8376 17.4977C89.3821 19.2817 88.9646 20.7999 88.9646 21.4072V21.4831C88.9646 21.8247 88.7748 21.9007 88.5471 21.9007H88.1296C86.6872 21.9007 86.0799 21.2554 86.0799 20.0028L86.1179 19.4715C86.3836 16.8905 88.0916 12.0321 88.5091 10.5897L88.5471 10.3241C88.5471 10.2102 88.5091 10.1722 88.4332 10.1722C88.3573 10.1722 88.2055 10.2481 88.0157 10.4C87.3704 10.9313 86.3456 12.2598 86.2318 12.3737C84.7515 14.3094 83.423 16.5488 82.8916 17.4977C82.3982 19.1678 82.0566 20.6481 82.0186 21.5211C82.0186 21.7868 81.8288 21.9007 81.6011 21.9007H81.3354C80.4245 21.9007 79.2099 21.7109 79.1719 20.8379V20.7999C79.1719 18.5226 81.715 10.6277 82.3602 8.95763C82.4741 8.65398 82.8157 8.50216 83.3091 8.50216C84.2201 8.50216 85.4726 9.03354 85.4726 9.64084L85.4347 9.79267C84.7894 11.3868 84.296 12.981 83.7646 14.6131C84.3339 13.7401 84.9792 12.8292 85.6624 11.9182C86.4215 10.9313 87.5223 9.64084 88.585 8.91968C89.0405 8.61603 89.5339 8.50216 89.9894 8.50216C90.9383 8.50216 91.7354 9.0715 91.7354 10.0963L91.6974 10.5518C91.5456 11.3489 91.0142 13.2467 90.5587 14.8408C91.166 13.9299 91.8492 12.9051 92.6084 11.9182C93.4054 10.9313 94.4682 9.64084 95.531 8.91968C95.9865 8.61603 96.4799 8.50216 96.9354 8.50216C97.8843 8.50216 98.6813 9.0715 98.6813 10.0963L98.6434 10.5518C98.112 13.1708 96.2901 18.2569 96.2901 20.4583C96.2901 20.9138 96.3281 21.1415 96.5178 21.1415C97.0113 21.1036 97.3908 20.7999 97.9602 19.8131C98.6434 18.7123 99.4784 16.8525 100.807 13.854C100.883 13.7021 100.997 13.6262 101.111 13.6262C101.338 13.6262 101.528 13.7781 101.528 14.0058C101.528 14.0437 101.528 14.0817 101.49 14.1576C100.162 17.1941 99.2886 19.0919 98.6054 20.2306C97.8463 21.4452 97.277 21.8627 96.5558 21.9007L95.493 21.9386Z" fill="#0049AB"/>
<path d="M76.2227 21.9007H75.7292C74.7803 21.9007 73.7935 21.7868 73.3759 20.9897C73.1482 20.6101 73.0723 20.0788 73.0723 19.4335C73.0723 18.978 73.1103 18.4846 73.1862 17.9532C72.9584 18.4466 72.6548 18.978 72.3132 19.4715C71.5161 20.762 70.5672 21.8627 69.6942 21.9007H69.2008C68.2519 21.9007 67.265 21.7868 66.8475 20.9897C66.6198 20.6101 66.5439 20.0788 66.5439 19.4335C66.5439 18.6364 66.6957 17.6116 66.9234 16.5868C67.4928 13.9299 68.8592 10.1722 69.4285 8.95763C69.5803 8.65398 69.9219 8.50216 70.3774 8.50216C71.2884 8.50216 72.465 9.0715 72.465 9.64084L72.427 9.79267C71.9336 11.0073 69.4665 17.5357 69.3906 20.2685C69.3906 20.7999 69.4285 21.1415 69.6183 21.1415C70.0358 21.1415 70.757 20.6101 71.7438 19.016C72.5409 17.7634 73.4139 15.8656 74.4387 13.0948C74.9701 11.3868 75.5774 9.79267 75.957 8.95763C76.0708 8.65398 76.4504 8.50216 76.9059 8.50216C77.8168 8.50216 78.9934 9.03354 78.9934 9.64084L78.9555 9.79267C78.4621 11.0073 75.9949 17.5357 75.919 20.2685C75.919 20.7999 75.957 21.1415 76.1847 21.1415C76.6781 21.1036 77.3613 20.3065 78.0825 19.2058C79.1453 17.5737 80.246 15.2583 80.8912 13.854C80.9672 13.6642 81.119 13.6262 81.2329 13.6262C81.2708 13.6262 81.3467 13.6262 81.4226 13.6642C81.5365 13.7401 81.6124 13.854 81.6124 13.9678C81.6124 14.0437 81.6124 14.0817 81.5745 14.1576C80.8533 15.7138 79.7526 18.0671 78.6139 19.7751C77.7789 20.9897 76.9438 21.8627 76.2227 21.9007Z" fill="#0049AB"/>
<path d="M68.9374 25.924H68.6338C65.9768 25.924 63.3199 23.6466 60.8907 22.2043C60.0557 23.1532 59.1448 23.6846 58.082 23.7605L57.5886 23.7985C55.7667 23.7985 54.9696 22.7736 54.9696 21.6729C54.9696 20.6861 55.5769 19.6612 56.5637 19.0539C57.1331 18.7503 57.6645 18.5985 58.1959 18.5985C58.6134 18.5985 59.0688 18.6744 59.5243 18.8262C61.7258 13.4364 63.0163 7.1737 65.2936 1.51824L65.1039 1.48029C63.4338 1.48029 59.8659 8.16056 59.5243 9.60289L59.4864 10.0963C59.4864 10.2861 59.5243 10.4 59.6002 10.4379C59.79 10.4759 59.9039 10.6277 59.9039 10.8175C59.9039 10.9313 59.828 11.0832 59.6382 11.1591C59.1448 11.3109 58.5375 11.5007 57.9302 11.5007C57.5886 11.5007 57.247 11.4248 56.9433 11.273C56.4499 10.9693 56.2981 10.4759 56.2981 9.94449C56.2981 9.64084 56.336 9.29924 56.4119 8.99559C56.8674 7.28757 58.2338 4.85838 59.8659 2.99853C61.2703 1.36642 62.8645 0.151825 64.2688 0.0379556L64.952 0C66.4323 0 68.7097 0.37956 68.7097 1.78393C68.7097 2.01167 68.6338 2.23941 68.5199 2.5051C66.2805 8.04669 64.7623 14.8408 62.2951 19.9649C64.7243 21.2174 67.6849 23.2291 70.19 23.2291C70.6075 23.2291 71.025 23.1532 71.4046 23.0393L71.5184 23.0014C71.7082 23.0014 71.898 23.1912 71.898 23.4189L71.8221 23.6087C70.9491 24.8233 70.0761 25.886 68.9374 25.924ZM57.0951 21.8627C57.6265 21.8627 58.044 21.3693 58.3477 20.9897C58.082 20.9138 57.7404 20.8379 57.4367 20.8379C57.209 20.8379 56.9813 20.8758 56.7915 20.9897C56.6397 21.0656 56.5258 21.2554 56.5258 21.4452C56.5258 21.6729 56.6397 21.8247 57.0572 21.8627H57.0951Z" fill="#0049AB"/>
<path d="M44.7114 21.9766C43.6106 21.9766 42.5099 21.9766 42.0924 21.0277C41.9026 20.6102 41.7887 20.0029 41.7887 19.3196C41.7887 16.3591 43.3449 11.4248 44.7493 7.66713L42.6617 7.59122C42.434 7.59122 42.2822 7.40144 42.2822 7.21166C42.2822 7.02188 42.396 6.87005 42.6238 6.87005H42.6617C43.3449 6.87005 44.18 6.87005 45.015 6.90801C45.5084 5.6175 46.0019 4.47882 46.3435 3.68174C46.4573 3.34014 46.8369 3.22627 47.2924 3.22627C48.2792 3.22627 49.6456 3.83357 49.6456 4.36495L49.6077 4.47882C49.2661 5.2759 48.9245 6.11093 48.5829 7.02188C49.2661 7.02188 49.9113 7.02188 50.4807 7.05983C50.7464 7.05983 50.8602 7.24961 50.8602 7.43939C50.8602 7.62917 50.7464 7.781 50.5186 7.781H50.4807C49.8354 7.781 49.0763 7.781 48.2792 7.74304C47.1026 11.273 45.8121 15.1824 45.053 18.4087C45.015 18.5985 44.6354 20.1926 44.6354 20.8758C44.6354 21.0656 44.6734 21.2174 44.7493 21.2174C44.8632 21.2174 44.9011 21.3693 44.9011 21.5591C44.9011 21.7488 44.8632 21.9766 44.7114 21.9766Z" fill="#0049AB"/>
<path d="M38.1524 21.9006H37.6589C36.71 21.9006 35.7232 21.7868 35.3057 20.9897C35.0779 20.6101 34.9641 20.0028 34.9641 19.3196C34.9641 18.5226 35.1159 17.5737 35.3057 16.5868C35.913 13.7401 37.1655 10.362 37.7348 8.95763C37.8867 8.65398 38.2662 8.50215 38.6837 8.50215C39.5947 8.50215 40.7713 9.07149 40.7713 9.64083L40.7334 9.79266C40.4297 10.6277 37.7728 18.181 37.7728 20.4963C37.7728 20.9138 37.8487 21.1415 38.0764 21.1415C39.329 21.1036 41.6823 16.2452 42.745 13.854C42.821 13.6642 42.9348 13.6262 43.0866 13.6262L43.2764 13.6642C43.3903 13.7021 43.4662 13.816 43.4662 13.9678C43.4662 14.0437 43.4662 14.0817 43.4283 14.1576C42.2137 16.8525 39.8983 21.8247 38.1524 21.9006ZM40.9232 7.09778C40.164 7.09778 39.0633 6.6423 39.0633 6.14887C39.0633 5.54158 39.5188 4.06129 39.7465 3.56786C39.8604 3.22626 40.202 3.11239 40.6195 3.11239C41.4925 3.11239 42.6312 3.71969 42.6312 4.28903C42.6312 4.36494 42.6312 4.47881 42.5553 4.55472C42.3655 4.89633 41.8341 6.26274 41.5684 6.83209C41.4925 7.02187 41.2268 7.09778 40.9232 7.09778Z" fill="#0049AB"/>
<path d="M29.1434 21.9007H28.8018C26.5624 21.9007 25.4997 20.4583 25.4997 18.8262C25.4997 17.9532 25.8033 17.0423 26.3727 16.2452C26.5624 15.9795 26.8661 15.8656 27.1697 15.8656C28.0427 15.8656 29.1434 16.6627 29.1434 17.1941C29.1434 17.27 29.1055 17.3839 28.9916 17.4598C28.3843 17.9532 27.8529 19.2817 27.8529 20.0788C27.8529 20.3824 27.9289 20.5722 28.0807 20.6861C28.1566 20.762 28.2325 20.762 28.3084 20.762C28.5361 20.762 28.8018 20.5722 28.9916 20.3445C29.523 19.6612 29.6748 18.7123 29.6748 17.6496C29.6748 15.8277 29.2194 13.7021 29.2194 12.0321C29.2194 11.7664 29.2194 11.5007 29.2573 11.235L27.8909 14.1956C27.815 14.3094 27.6632 14.3853 27.5493 14.3853C27.4734 14.3853 27.4354 14.3854 27.3595 14.3474C27.2836 14.3094 27.1697 14.2715 27.1697 14.0817C27.1697 14.0058 27.1697 13.8919 27.2077 13.816C27.5113 13.1328 29.4851 8.50216 30.2062 8.50216H33.015C33.2427 8.50216 33.3945 8.65398 33.3945 8.84376C33.3945 8.91968 33.3945 9.03354 33.3186 9.10946C32.6354 10.1343 32.4077 11.1591 32.4077 12.1459C32.4077 13.7401 32.9391 15.3343 32.9391 16.9664C32.9391 17.3459 32.9011 17.7255 32.8252 18.105C32.6354 18.978 32.4077 19.6612 32.0661 20.1926C32.5595 19.6612 33.3566 18.6364 33.9639 17.7255C34.6091 16.7007 35.3303 15.4481 36.0894 13.816C36.1653 13.6642 36.2792 13.6262 36.431 13.6262C36.469 13.6262 36.5449 13.6262 36.6208 13.6642C36.7347 13.7401 36.8106 13.854 36.8106 14.0058L36.7726 14.1576C36.0894 15.5999 35.3303 17.0043 34.5332 18.2189C33.9639 19.0919 33.3945 19.851 32.7493 20.5722C31.6106 21.8247 30.2821 21.9007 29.1434 21.9007Z" fill="#0049AB"/>
<path d="M22.5844 21.9006H22.091C21.1421 21.9006 20.1553 21.7868 19.7377 20.9897C19.51 20.6101 19.3961 20.0028 19.3961 19.3196C19.3961 18.5226 19.548 17.5737 19.7377 16.5868C20.345 13.7401 21.5976 10.362 22.1669 8.95763C22.3188 8.65398 22.6983 8.50215 23.1158 8.50215C24.0268 8.50215 25.2034 9.07149 25.2034 9.64083L25.1655 9.79266C24.8618 10.6277 22.2049 18.181 22.2049 20.4963C22.2049 20.9138 22.2808 21.1415 22.5085 21.1415C23.7611 21.1036 26.1144 16.2452 27.1771 13.854C27.253 13.6642 27.3669 13.6262 27.5187 13.6262L27.7085 13.6642C27.8224 13.7021 27.8983 13.816 27.8983 13.9678C27.8983 14.0437 27.8983 14.0817 27.8603 14.1576C26.6457 16.8525 24.3304 21.8247 22.5844 21.9006ZM25.3552 7.09778C24.5961 7.09778 23.4954 6.6423 23.4954 6.14887C23.4954 5.54158 23.9509 4.06129 24.1786 3.56786C24.2925 3.22626 24.6341 3.11239 25.0516 3.11239C25.9246 3.11239 27.0633 3.71969 27.0633 4.28903C27.0633 4.36494 27.0633 4.47881 26.9873 4.55472C26.7976 4.89633 26.2662 6.26274 26.0005 6.83209C25.9246 7.02187 25.6589 7.09778 25.3552 7.09778Z" fill="#0049AB"/>
<path d="M10.1343 23.7985C8.95763 23.7985 6.90801 23.4189 6.68027 21.8627C6.5664 21.2174 6.52844 20.4583 6.52844 19.6233C6.52844 14.3854 8.31238 6.33866 9.0715 1.85985V1.78393C9.0715 1.5562 8.91968 1.48029 8.7299 1.48029C8.57807 1.48029 8.38829 1.51824 8.23647 1.63211C6.45253 2.65692 3.18831 8.80581 3.18831 10.1722C3.18831 10.3241 3.22627 10.4379 3.30218 10.4379C3.49196 10.4759 3.60583 10.6277 3.60583 10.8175C3.60583 10.9313 3.52991 11.0832 3.34013 11.1591C2.84671 11.3109 2.23941 11.5007 1.63211 11.5007C1.29051 11.5007 0.948902 11.4248 0.645253 11.273C0.151824 10.9693 0 10.4759 0 9.94449C0 9.64084 0.0379561 9.29924 0.113868 8.99559C0.87299 6.14888 4.70655 0.303649 7.97078 0.0379556L8.88172 0C11.8803 0 12.5635 1.67007 12.5635 3.34013C12.5635 3.75765 12.5255 4.21312 12.4496 4.59268C11.7664 8.84376 10.362 17.7255 10.362 20.9897C10.362 21.8247 10.4379 22.2802 10.6277 22.2802C11.273 22.2802 15.0686 16.5109 17.9153 7.36348C18.5605 5.35181 18.978 3.60583 18.978 2.39123C18.978 1.70802 18.8642 1.21459 18.5226 0.948901C18.4467 0.87299 18.4087 0.797076 18.4087 0.721165C18.4087 0.493429 18.5985 0.303649 18.8262 0.303649C20.6101 0.455474 21.3313 1.85985 21.3313 3.79561C21.3313 5.16203 20.9897 6.79414 20.4204 8.50216C18.2569 15.2583 12.6773 23.5328 10.6277 23.7605L10.1343 23.7985Z" fill="#0049AB"/>
</svg>
