<svg width="20" height="15" viewBox="0 0 20 15" fill="none" xmlns="http://www.w3.org/2000/svg">
<path d="M8.79325 2.736L6.34525 6.48C7.08125 6.736 7.68925 7.2 8.16925 7.872C8.64925 8.512 8.88925 9.296 8.88925 10.224C8.88925 11.376 8.48925 12.368 7.68925 13.2C6.88925 14 5.91325 14.4 4.76125 14.4C3.60925 14.4 2.61725 14 1.78525 13.2C0.98525 12.368 0.58525 11.376 0.58525 10.224C0.58525 9.616 0.68125 9.072 0.87325 8.592C1.09725 8.112 1.40125 7.6 1.78525 7.056L5.96125 0.863997L8.79325 2.736ZM19.3053 2.736L16.8573 6.48C17.5933 6.736 18.2013 7.2 18.6813 7.872C19.1613 8.512 19.4013 9.296 19.4013 10.224C19.4013 11.376 19.0013 12.368 18.2013 13.2C17.4013 14 16.4253 14.4 15.2733 14.4C14.1213 14.4 13.1293 14 12.2973 13.2C11.4973 12.368 11.0973 11.376 11.0973 10.224C11.0973 9.616 11.1933 9.072 11.3853 8.592C11.6093 8.112 11.9133 7.6 12.2973 7.056L16.4733 0.863997L19.3053 2.736Z" fill="#3F3F3F"/>
</svg>
